<svg xmlns="http://www.w3.org/2000/svg" x="0px" y="0px"
width="48" height="48"
viewBox="0 0 172 172"
style=" fill:#000000;"><defs><linearGradient x1="57.32353" y1="34.54159" x2="57.32353" y2="138.08346" gradientUnits="userSpaceOnUse" id="color-1_TG5DEHpUn0gB_gr1"><stop offset="0" stop-color="#32bdef"></stop><stop offset="1" stop-color="#1ea2e4"></stop></linearGradient></defs><g fill="none" fill-rule="nonzero" stroke="none" stroke-width="1" stroke-linecap="butt" stroke-linejoin="miter" stroke-miterlimit="10" stroke-dasharray="" stroke-dashoffset="0" font-family="none" font-weight="none" font-size="none" text-anchor="none" style="mix-blend-mode: normal"><path d="M0,172v-172h172v172z" fill="none"></path><path d="M86,172c-47.49649,0 -86,-38.50351 -86,-86v0c0,-47.49649 38.50351,-86 86,-86v0c47.49649,0 86,38.50351 86,86v0c0,47.49649 -38.50351,86 -86,86z" fill="#cccccc"></path><g><path d="M137.13276,129.63844l-39.18366,-93.22209c-0.59052,-1.41897 -2.12989,-2.22735 -3.61766,-1.92636c-1.50497,0.30099 -2.60001,1.63397 -2.60001,3.17047v94.2082c0,3.16187 2.57135,5.73322 5.73322,5.73322h34.37636c1.92636,0 3.71226,-0.95745 4.77864,-2.56275c1.06638,-1.6053 1.26131,-3.62339 0.51312,-5.40069z" fill="#007ad9"></path><path d="M34.84932,129.63844l39.18366,-93.22209c0.59052,-1.41897 2.12989,-2.22735 3.61766,-1.92636c1.50497,0.30099 2.60001,1.63397 2.60001,3.17047v94.2082c0,3.16187 -2.57135,5.73322 -5.73322,5.73322h-34.37636c-1.92636,0 -3.71226,-0.95745 -4.77864,-2.56275c-1.06638,-1.6053 -1.26131,-3.62339 -0.51312,-5.40069z" fill="url(#color-1_TG5DEHpUn0gB_gr1)"></path></g></g></svg>